<mxfile host="Electron" modified="2023-11-03T16:27:06.512Z" agent="Mozilla/5.0 (Windows NT 10.0; Win64; x64) AppleWebKit/537.36 (KHTML, like Gecko) draw.io/22.0.2 Chrome/114.0.5735.289 Electron/25.8.4 Safari/537.36" etag="29olb6xcCPxpTYYR63y4" version="22.0.2" type="device">
  <diagram name="Page-1" id="cfAgsm6oTCUB_AKXHStI">
    <mxGraphModel dx="1040" dy="661" grid="1" gridSize="10" guides="1" tooltips="1" connect="1" arrows="1" fold="1" page="1" pageScale="1" pageWidth="1654" pageHeight="1169" math="0" shadow="0">
      <root>
        <mxCell id="0" />
        <mxCell id="1" parent="0" />
        <mxCell id="ZW21HryPr5eFhCW9cXzX-64" value="" style="rounded=0;whiteSpace=wrap;html=1;fillColor=none;" vertex="1" parent="1">
          <mxGeometry x="1190" y="280" width="390" height="470" as="geometry" />
        </mxCell>
        <mxCell id="ZW21HryPr5eFhCW9cXzX-1" value="POLÍTICO" style="whiteSpace=wrap;html=1;" vertex="1" parent="1">
          <mxGeometry x="767" y="555" width="123" height="45" as="geometry" />
        </mxCell>
        <mxCell id="ZW21HryPr5eFhCW9cXzX-7" value="CARGO" style="whiteSpace=wrap;html=1;" vertex="1" parent="1">
          <mxGeometry x="712" y="781" width="100" height="40" as="geometry" />
        </mxCell>
        <mxCell id="ZW21HryPr5eFhCW9cXzX-8" value="BECARIO" style="whiteSpace=wrap;html=1;" vertex="1" parent="1">
          <mxGeometry x="285" y="180" width="123" height="45" as="geometry" />
        </mxCell>
        <mxCell id="ZW21HryPr5eFhCW9cXzX-9" value="COCHE OFICIAL" style="whiteSpace=wrap;html=1;" vertex="1" parent="1">
          <mxGeometry x="230" y="537.5" width="123" height="45" as="geometry" />
        </mxCell>
        <mxCell id="ZW21HryPr5eFhCW9cXzX-10" value="CONCEJAL" style="whiteSpace=wrap;html=1;" vertex="1" parent="1">
          <mxGeometry x="832" y="781" width="110" height="40" as="geometry" />
        </mxCell>
        <mxCell id="ZW21HryPr5eFhCW9cXzX-11" value="REUNIÓN" style="whiteSpace=wrap;html=1;" vertex="1" parent="1">
          <mxGeometry x="1265" y="359" width="123" height="45" as="geometry" />
        </mxCell>
        <mxCell id="ZW21HryPr5eFhCW9cXzX-12" value="PARTIDO POLITICO" style="whiteSpace=wrap;html=1;" vertex="1" parent="1">
          <mxGeometry x="768" y="180" width="123" height="45" as="geometry" />
        </mxCell>
        <mxCell id="ZW21HryPr5eFhCW9cXzX-13" value="ASESOR" style="whiteSpace=wrap;html=1;" vertex="1" parent="1">
          <mxGeometry x="162" y="877" width="123" height="45" as="geometry" />
        </mxCell>
        <mxCell id="ZW21HryPr5eFhCW9cXzX-14" value="DIETA" style="whiteSpace=wrap;html=1;" vertex="1" parent="1">
          <mxGeometry x="1265" y="659" width="123" height="45" as="geometry" />
        </mxCell>
        <mxCell id="ZW21HryPr5eFhCW9cXzX-15" value="LINEA DETALLE" style="whiteSpace=wrap;html=1;" vertex="1" parent="1">
          <mxGeometry x="1265" y="919" width="123" height="45" as="geometry" />
        </mxCell>
        <mxCell id="ZW21HryPr5eFhCW9cXzX-16" value="Se cobra" style="rhombus;whiteSpace=wrap;html=1;" vertex="1" parent="1">
          <mxGeometry x="1286.5" y="499" width="80" height="80" as="geometry" />
        </mxCell>
        <mxCell id="ZW21HryPr5eFhCW9cXzX-19" value="Tiene" style="rhombus;whiteSpace=wrap;html=1;" vertex="1" parent="1">
          <mxGeometry x="1286.5" y="774" width="80" height="80" as="geometry" />
        </mxCell>
        <mxCell id="ZW21HryPr5eFhCW9cXzX-22" value="" style="endArrow=none;html=1;rounded=0;entryX=0.5;entryY=1;entryDx=0;entryDy=0;exitX=0.5;exitY=0;exitDx=0;exitDy=0;" edge="1" parent="1" source="ZW21HryPr5eFhCW9cXzX-16" target="ZW21HryPr5eFhCW9cXzX-11">
          <mxGeometry width="50" height="50" relative="1" as="geometry">
            <mxPoint x="875" y="519" as="sourcePoint" />
            <mxPoint x="925" y="469" as="targetPoint" />
          </mxGeometry>
        </mxCell>
        <mxCell id="ZW21HryPr5eFhCW9cXzX-23" value="" style="endArrow=none;html=1;rounded=0;entryX=0.5;entryY=1;entryDx=0;entryDy=0;exitX=0.5;exitY=0;exitDx=0;exitDy=0;" edge="1" parent="1" source="ZW21HryPr5eFhCW9cXzX-14" target="ZW21HryPr5eFhCW9cXzX-16">
          <mxGeometry width="50" height="50" relative="1" as="geometry">
            <mxPoint x="875" y="519" as="sourcePoint" />
            <mxPoint x="925" y="469" as="targetPoint" />
          </mxGeometry>
        </mxCell>
        <mxCell id="ZW21HryPr5eFhCW9cXzX-24" value="" style="endArrow=none;html=1;rounded=0;entryX=0.5;entryY=1;entryDx=0;entryDy=0;exitX=0.5;exitY=0;exitDx=0;exitDy=0;" edge="1" parent="1" source="ZW21HryPr5eFhCW9cXzX-19" target="ZW21HryPr5eFhCW9cXzX-14">
          <mxGeometry width="50" height="50" relative="1" as="geometry">
            <mxPoint x="875" y="519" as="sourcePoint" />
            <mxPoint x="925" y="469" as="targetPoint" />
          </mxGeometry>
        </mxCell>
        <mxCell id="ZW21HryPr5eFhCW9cXzX-25" value="" style="endArrow=none;html=1;rounded=0;entryX=0.5;entryY=1;entryDx=0;entryDy=0;exitX=0.5;exitY=0;exitDx=0;exitDy=0;" edge="1" parent="1" source="ZW21HryPr5eFhCW9cXzX-15" target="ZW21HryPr5eFhCW9cXzX-19">
          <mxGeometry width="50" height="50" relative="1" as="geometry">
            <mxPoint x="875" y="519" as="sourcePoint" />
            <mxPoint x="925" y="469" as="targetPoint" />
          </mxGeometry>
        </mxCell>
        <mxCell id="ZW21HryPr5eFhCW9cXzX-26" value="" style="whiteSpace=wrap;html=1;fillColor=none;" vertex="1" parent="1">
          <mxGeometry x="1272" y="926.5" width="110" height="30" as="geometry" />
        </mxCell>
        <mxCell id="ZW21HryPr5eFhCW9cXzX-27" value="" style="rhombus;whiteSpace=wrap;html=1;fillColor=none;" vertex="1" parent="1">
          <mxGeometry x="1291" y="781" width="70" height="66.5" as="geometry" />
        </mxCell>
        <mxCell id="ZW21HryPr5eFhCW9cXzX-28" value="&lt;u&gt;num_linea&lt;/u&gt;" style="ellipse;whiteSpace=wrap;html=1;" vertex="1" parent="1">
          <mxGeometry x="1388" y="1000" width="90" height="30" as="geometry" />
        </mxCell>
        <mxCell id="ZW21HryPr5eFhCW9cXzX-29" value="cantidad" style="ellipse;whiteSpace=wrap;html=1;" vertex="1" parent="1">
          <mxGeometry x="1276.5" y="1017" width="90" height="30" as="geometry" />
        </mxCell>
        <mxCell id="ZW21HryPr5eFhCW9cXzX-32" value="importe" style="ellipse;whiteSpace=wrap;html=1;" vertex="1" parent="1">
          <mxGeometry x="1170" y="1000" width="90" height="30" as="geometry" />
        </mxCell>
        <mxCell id="ZW21HryPr5eFhCW9cXzX-33" value="" style="endArrow=none;html=1;rounded=0;entryX=0.5;entryY=0;entryDx=0;entryDy=0;exitX=0;exitY=0.5;exitDx=0;exitDy=0;" edge="1" parent="1" source="ZW21HryPr5eFhCW9cXzX-15" target="ZW21HryPr5eFhCW9cXzX-32">
          <mxGeometry width="50" height="50" relative="1" as="geometry">
            <mxPoint x="890" y="690" as="sourcePoint" />
            <mxPoint x="940" y="640" as="targetPoint" />
          </mxGeometry>
        </mxCell>
        <mxCell id="ZW21HryPr5eFhCW9cXzX-34" value="" style="endArrow=none;html=1;rounded=0;exitX=0.5;exitY=0;exitDx=0;exitDy=0;" edge="1" parent="1" source="ZW21HryPr5eFhCW9cXzX-29">
          <mxGeometry width="50" height="50" relative="1" as="geometry">
            <mxPoint x="890" y="687" as="sourcePoint" />
            <mxPoint x="1310" y="967" as="targetPoint" />
          </mxGeometry>
        </mxCell>
        <mxCell id="ZW21HryPr5eFhCW9cXzX-35" value="" style="endArrow=none;html=1;rounded=0;exitX=0.5;exitY=0;exitDx=0;exitDy=0;" edge="1" parent="1" source="ZW21HryPr5eFhCW9cXzX-28">
          <mxGeometry width="50" height="50" relative="1" as="geometry">
            <mxPoint x="890" y="690" as="sourcePoint" />
            <mxPoint x="1390" y="942" as="targetPoint" />
          </mxGeometry>
        </mxCell>
        <mxCell id="ZW21HryPr5eFhCW9cXzX-36" value="(1,n)" style="text;html=1;align=center;verticalAlign=middle;resizable=0;points=[];autosize=1;strokeColor=none;fillColor=none;" vertex="1" parent="1">
          <mxGeometry x="1360.5" y="885" width="50" height="30" as="geometry" />
        </mxCell>
        <mxCell id="ZW21HryPr5eFhCW9cXzX-37" value="(1,1)" style="text;html=1;align=center;verticalAlign=middle;resizable=0;points=[];autosize=1;strokeColor=none;fillColor=none;" vertex="1" parent="1">
          <mxGeometry x="1361" y="710" width="50" height="30" as="geometry" />
        </mxCell>
        <mxCell id="ZW21HryPr5eFhCW9cXzX-38" value="&lt;b&gt;1:N&lt;/b&gt;" style="text;html=1;align=center;verticalAlign=middle;resizable=0;points=[];autosize=1;strokeColor=none;fillColor=none;" vertex="1" parent="1">
          <mxGeometry x="1365" y="798.25" width="40" height="30" as="geometry" />
        </mxCell>
        <mxCell id="ZW21HryPr5eFhCW9cXzX-39" value="&lt;b&gt;ID&lt;/b&gt;" style="text;html=1;align=center;verticalAlign=middle;resizable=0;points=[];autosize=1;strokeColor=none;fillColor=none;" vertex="1" parent="1">
          <mxGeometry x="1268" y="832.25" width="40" height="30" as="geometry" />
        </mxCell>
        <mxCell id="ZW21HryPr5eFhCW9cXzX-40" value="concepto" style="ellipse;whiteSpace=wrap;html=1;" vertex="1" parent="1">
          <mxGeometry x="1440" y="610" width="90" height="30" as="geometry" />
        </mxCell>
        <mxCell id="ZW21HryPr5eFhCW9cXzX-41" value="descripcion" style="ellipse;whiteSpace=wrap;html=1;" vertex="1" parent="1">
          <mxGeometry x="1468" y="655" width="90" height="30" as="geometry" />
        </mxCell>
        <mxCell id="ZW21HryPr5eFhCW9cXzX-42" value="&lt;u&gt;codigo&lt;/u&gt;" style="ellipse;whiteSpace=wrap;html=1;" vertex="1" parent="1">
          <mxGeometry x="1460" y="700" width="90" height="30" as="geometry" />
        </mxCell>
        <mxCell id="ZW21HryPr5eFhCW9cXzX-45" value="" style="endArrow=none;html=1;rounded=0;entryX=0;entryY=0.5;entryDx=0;entryDy=0;exitX=1;exitY=0.5;exitDx=0;exitDy=0;" edge="1" parent="1" source="ZW21HryPr5eFhCW9cXzX-14" target="ZW21HryPr5eFhCW9cXzX-40">
          <mxGeometry width="50" height="50" relative="1" as="geometry">
            <mxPoint x="890" y="690" as="sourcePoint" />
            <mxPoint x="940" y="640" as="targetPoint" />
          </mxGeometry>
        </mxCell>
        <mxCell id="ZW21HryPr5eFhCW9cXzX-46" value="" style="endArrow=none;html=1;rounded=0;entryX=0;entryY=0.5;entryDx=0;entryDy=0;exitX=1;exitY=0.5;exitDx=0;exitDy=0;" edge="1" parent="1" source="ZW21HryPr5eFhCW9cXzX-14" target="ZW21HryPr5eFhCW9cXzX-41">
          <mxGeometry width="50" height="50" relative="1" as="geometry">
            <mxPoint x="890" y="690" as="sourcePoint" />
            <mxPoint x="940" y="640" as="targetPoint" />
          </mxGeometry>
        </mxCell>
        <mxCell id="ZW21HryPr5eFhCW9cXzX-47" value="" style="endArrow=none;html=1;rounded=0;entryX=0;entryY=0.5;entryDx=0;entryDy=0;exitX=1;exitY=0.5;exitDx=0;exitDy=0;" edge="1" parent="1" source="ZW21HryPr5eFhCW9cXzX-14" target="ZW21HryPr5eFhCW9cXzX-42">
          <mxGeometry width="50" height="50" relative="1" as="geometry">
            <mxPoint x="890" y="690" as="sourcePoint" />
            <mxPoint x="940" y="640" as="targetPoint" />
          </mxGeometry>
        </mxCell>
        <mxCell id="ZW21HryPr5eFhCW9cXzX-48" value="" style="whiteSpace=wrap;html=1;fillColor=none;" vertex="1" parent="1">
          <mxGeometry x="1271.5" y="666" width="110" height="30" as="geometry" />
        </mxCell>
        <mxCell id="ZW21HryPr5eFhCW9cXzX-49" value="" style="rhombus;whiteSpace=wrap;html=1;fillColor=none;" vertex="1" parent="1">
          <mxGeometry x="1290.5" y="505.75" width="70" height="66.5" as="geometry" />
        </mxCell>
        <mxCell id="ZW21HryPr5eFhCW9cXzX-50" value="&lt;b&gt;E&lt;/b&gt;" style="text;html=1;align=center;verticalAlign=middle;resizable=0;points=[];autosize=1;strokeColor=none;fillColor=none;" vertex="1" parent="1">
          <mxGeometry x="1274" y="554.5" width="30" height="30" as="geometry" />
        </mxCell>
        <mxCell id="ZW21HryPr5eFhCW9cXzX-51" value="&lt;u&gt;codigo&lt;/u&gt;" style="ellipse;whiteSpace=wrap;html=1;" vertex="1" parent="1">
          <mxGeometry x="1430" y="330" width="90" height="30" as="geometry" />
        </mxCell>
        <mxCell id="ZW21HryPr5eFhCW9cXzX-52" value="descripcion" style="ellipse;whiteSpace=wrap;html=1;" vertex="1" parent="1">
          <mxGeometry x="1321" y="300" width="90" height="30" as="geometry" />
        </mxCell>
        <mxCell id="ZW21HryPr5eFhCW9cXzX-53" value="fecha_celeb" style="ellipse;whiteSpace=wrap;html=1;" vertex="1" parent="1">
          <mxGeometry x="1201.5" y="300" width="90" height="30" as="geometry" />
        </mxCell>
        <mxCell id="ZW21HryPr5eFhCW9cXzX-54" value="num_asistentes" style="ellipse;whiteSpace=wrap;html=1;" vertex="1" parent="1">
          <mxGeometry x="1435" y="390" width="100" height="30" as="geometry" />
        </mxCell>
        <mxCell id="ZW21HryPr5eFhCW9cXzX-56" value="(1,n)" style="text;html=1;align=center;verticalAlign=middle;resizable=0;points=[];autosize=1;strokeColor=none;fillColor=none;" vertex="1" parent="1">
          <mxGeometry x="1244.5" y="630" width="50" height="30" as="geometry" />
        </mxCell>
        <mxCell id="ZW21HryPr5eFhCW9cXzX-57" value="(1,1)" style="text;html=1;align=center;verticalAlign=middle;resizable=0;points=[];autosize=1;strokeColor=none;fillColor=none;" vertex="1" parent="1">
          <mxGeometry x="1250.5" y="404" width="50" height="30" as="geometry" />
        </mxCell>
        <mxCell id="ZW21HryPr5eFhCW9cXzX-58" value="&lt;b&gt;1:N&lt;/b&gt;" style="text;html=1;align=center;verticalAlign=middle;resizable=0;points=[];autosize=1;strokeColor=none;fillColor=none;" vertex="1" parent="1">
          <mxGeometry x="1366" y="521.5" width="40" height="30" as="geometry" />
        </mxCell>
        <mxCell id="ZW21HryPr5eFhCW9cXzX-59" value="" style="endArrow=none;html=1;rounded=0;entryX=0.5;entryY=1;entryDx=0;entryDy=0;exitX=0.5;exitY=0;exitDx=0;exitDy=0;" edge="1" parent="1" source="ZW21HryPr5eFhCW9cXzX-11" target="ZW21HryPr5eFhCW9cXzX-53">
          <mxGeometry width="50" height="50" relative="1" as="geometry">
            <mxPoint x="890" y="690" as="sourcePoint" />
            <mxPoint x="940" y="640" as="targetPoint" />
          </mxGeometry>
        </mxCell>
        <mxCell id="ZW21HryPr5eFhCW9cXzX-60" value="" style="endArrow=none;html=1;rounded=0;entryX=0.5;entryY=1;entryDx=0;entryDy=0;exitX=0.75;exitY=0;exitDx=0;exitDy=0;" edge="1" parent="1" source="ZW21HryPr5eFhCW9cXzX-11" target="ZW21HryPr5eFhCW9cXzX-52">
          <mxGeometry width="50" height="50" relative="1" as="geometry">
            <mxPoint x="890" y="690" as="sourcePoint" />
            <mxPoint x="940" y="640" as="targetPoint" />
          </mxGeometry>
        </mxCell>
        <mxCell id="ZW21HryPr5eFhCW9cXzX-61" value="" style="endArrow=none;html=1;rounded=0;entryX=0;entryY=1;entryDx=0;entryDy=0;exitX=1;exitY=0.5;exitDx=0;exitDy=0;" edge="1" parent="1" source="ZW21HryPr5eFhCW9cXzX-11" target="ZW21HryPr5eFhCW9cXzX-51">
          <mxGeometry width="50" height="50" relative="1" as="geometry">
            <mxPoint x="890" y="690" as="sourcePoint" />
            <mxPoint x="940" y="640" as="targetPoint" />
          </mxGeometry>
        </mxCell>
        <mxCell id="ZW21HryPr5eFhCW9cXzX-62" value="" style="endArrow=none;html=1;rounded=0;entryX=0;entryY=0;entryDx=0;entryDy=0;exitX=1;exitY=0.5;exitDx=0;exitDy=0;" edge="1" parent="1" source="ZW21HryPr5eFhCW9cXzX-11" target="ZW21HryPr5eFhCW9cXzX-54">
          <mxGeometry width="50" height="50" relative="1" as="geometry">
            <mxPoint x="890" y="690" as="sourcePoint" />
            <mxPoint x="940" y="640" as="targetPoint" />
          </mxGeometry>
        </mxCell>
        <mxCell id="ZW21HryPr5eFhCW9cXzX-65" value="" style="ellipse;whiteSpace=wrap;html=1;aspect=fixed;" vertex="1" parent="1">
          <mxGeometry x="1249" y="328" width="12" height="12" as="geometry" />
        </mxCell>
        <mxCell id="ZW21HryPr5eFhCW9cXzX-70" value="Es un" style="triangle;whiteSpace=wrap;html=1;rotation=90;" vertex="1" parent="1">
          <mxGeometry x="807" y="664" width="40" height="50" as="geometry" />
        </mxCell>
        <mxCell id="ZW21HryPr5eFhCW9cXzX-72" value="" style="ellipse;whiteSpace=wrap;html=1;aspect=fixed;" vertex="1" parent="1">
          <mxGeometry x="812" y="638" width="30" height="30" as="geometry" />
        </mxCell>
        <mxCell id="ZW21HryPr5eFhCW9cXzX-73" value="" style="endArrow=none;html=1;rounded=0;entryX=0.5;entryY=1;entryDx=0;entryDy=0;exitX=0.5;exitY=0;exitDx=0;exitDy=0;" edge="1" parent="1" source="ZW21HryPr5eFhCW9cXzX-72" target="ZW21HryPr5eFhCW9cXzX-1">
          <mxGeometry width="50" height="50" relative="1" as="geometry">
            <mxPoint x="810" y="690" as="sourcePoint" />
            <mxPoint x="860" y="640" as="targetPoint" />
          </mxGeometry>
        </mxCell>
        <mxCell id="ZW21HryPr5eFhCW9cXzX-74" value="" style="endArrow=none;html=1;rounded=0;entryX=1;entryY=0.5;entryDx=0;entryDy=0;exitX=0.5;exitY=0;exitDx=0;exitDy=0;" edge="1" parent="1" source="ZW21HryPr5eFhCW9cXzX-7" target="ZW21HryPr5eFhCW9cXzX-70">
          <mxGeometry width="50" height="50" relative="1" as="geometry">
            <mxPoint x="810" y="690" as="sourcePoint" />
            <mxPoint x="860" y="640" as="targetPoint" />
          </mxGeometry>
        </mxCell>
        <mxCell id="ZW21HryPr5eFhCW9cXzX-75" value="" style="endArrow=none;html=1;rounded=0;exitX=0.5;exitY=0;exitDx=0;exitDy=0;entryX=1;entryY=0.5;entryDx=0;entryDy=0;" edge="1" parent="1" source="ZW21HryPr5eFhCW9cXzX-10" target="ZW21HryPr5eFhCW9cXzX-70">
          <mxGeometry width="50" height="50" relative="1" as="geometry">
            <mxPoint x="810" y="690" as="sourcePoint" />
            <mxPoint x="860" y="640" as="targetPoint" />
          </mxGeometry>
        </mxCell>
        <mxCell id="ZW21HryPr5eFhCW9cXzX-76" value="&lt;u&gt;DNI&lt;/u&gt;" style="ellipse;whiteSpace=wrap;html=1;" vertex="1" parent="1">
          <mxGeometry x="261.5" y="791" width="60" height="30" as="geometry" />
        </mxCell>
        <mxCell id="ZW21HryPr5eFhCW9cXzX-77" value="nom_compl" style="ellipse;whiteSpace=wrap;html=1;" vertex="1" parent="1">
          <mxGeometry x="870" y="452" width="90" height="30" as="geometry" />
        </mxCell>
        <mxCell id="ZW21HryPr5eFhCW9cXzX-78" value="Asiste" style="rhombus;whiteSpace=wrap;html=1;" vertex="1" parent="1">
          <mxGeometry x="1000" y="537.5" width="80" height="80" as="geometry" />
        </mxCell>
        <mxCell id="ZW21HryPr5eFhCW9cXzX-79" value="" style="endArrow=none;html=1;rounded=0;entryX=1;entryY=0.5;entryDx=0;entryDy=0;exitX=-0.002;exitY=0.637;exitDx=0;exitDy=0;exitPerimeter=0;" edge="1" parent="1" source="ZW21HryPr5eFhCW9cXzX-64" target="ZW21HryPr5eFhCW9cXzX-78">
          <mxGeometry width="50" height="50" relative="1" as="geometry">
            <mxPoint x="810" y="690" as="sourcePoint" />
            <mxPoint x="860" y="640" as="targetPoint" />
          </mxGeometry>
        </mxCell>
        <mxCell id="ZW21HryPr5eFhCW9cXzX-81" value="" style="endArrow=none;html=1;rounded=0;entryX=0;entryY=0.5;entryDx=0;entryDy=0;exitX=1;exitY=0.5;exitDx=0;exitDy=0;" edge="1" parent="1" source="ZW21HryPr5eFhCW9cXzX-1" target="ZW21HryPr5eFhCW9cXzX-78">
          <mxGeometry width="50" height="50" relative="1" as="geometry">
            <mxPoint x="810" y="690" as="sourcePoint" />
            <mxPoint x="860" y="640" as="targetPoint" />
          </mxGeometry>
        </mxCell>
        <mxCell id="ZW21HryPr5eFhCW9cXzX-82" value="(0,n)" style="text;html=1;align=center;verticalAlign=middle;resizable=0;points=[];autosize=1;strokeColor=none;fillColor=none;" vertex="1" parent="1">
          <mxGeometry x="1136" y="548.25" width="50" height="30" as="geometry" />
        </mxCell>
        <mxCell id="ZW21HryPr5eFhCW9cXzX-83" value="(1,n)" style="text;html=1;align=center;verticalAlign=middle;resizable=0;points=[];autosize=1;strokeColor=none;fillColor=none;" vertex="1" parent="1">
          <mxGeometry x="890" y="544.5" width="50" height="30" as="geometry" />
        </mxCell>
        <mxCell id="ZW21HryPr5eFhCW9cXzX-84" value="&lt;b&gt;N:M&lt;/b&gt;" style="text;html=1;align=center;verticalAlign=middle;resizable=0;points=[];autosize=1;strokeColor=none;fillColor=none;" vertex="1" parent="1">
          <mxGeometry x="1015" y="510.5" width="50" height="30" as="geometry" />
        </mxCell>
        <mxCell id="ZW21HryPr5eFhCW9cXzX-85" value="Usa" style="rhombus;whiteSpace=wrap;html=1;" vertex="1" parent="1">
          <mxGeometry x="500" y="518.5" width="80" height="80" as="geometry" />
        </mxCell>
        <mxCell id="ZW21HryPr5eFhCW9cXzX-86" value="" style="endArrow=none;html=1;rounded=0;exitX=1;exitY=0.5;exitDx=0;exitDy=0;" edge="1" parent="1" source="ZW21HryPr5eFhCW9cXzX-85">
          <mxGeometry width="50" height="50" relative="1" as="geometry">
            <mxPoint x="570" y="690" as="sourcePoint" />
            <mxPoint x="770" y="560" as="targetPoint" />
          </mxGeometry>
        </mxCell>
        <mxCell id="ZW21HryPr5eFhCW9cXzX-87" value="" style="endArrow=none;html=1;rounded=0;entryX=0;entryY=0.5;entryDx=0;entryDy=0;exitX=1;exitY=0.5;exitDx=0;exitDy=0;" edge="1" parent="1" source="ZW21HryPr5eFhCW9cXzX-9" target="ZW21HryPr5eFhCW9cXzX-85">
          <mxGeometry width="50" height="50" relative="1" as="geometry">
            <mxPoint x="570" y="690" as="sourcePoint" />
            <mxPoint x="620" y="640" as="targetPoint" />
          </mxGeometry>
        </mxCell>
        <mxCell id="ZW21HryPr5eFhCW9cXzX-88" value="Tiene" style="rhombus;whiteSpace=wrap;html=1;" vertex="1" parent="1">
          <mxGeometry x="390" y="860" width="80" height="80" as="geometry" />
        </mxCell>
        <mxCell id="ZW21HryPr5eFhCW9cXzX-89" value="" style="endArrow=none;html=1;rounded=0;entryX=0;entryY=1;entryDx=0;entryDy=0;" edge="1" parent="1" target="ZW21HryPr5eFhCW9cXzX-1">
          <mxGeometry width="50" height="50" relative="1" as="geometry">
            <mxPoint x="610" y="600" as="sourcePoint" />
            <mxPoint x="620" y="640" as="targetPoint" />
          </mxGeometry>
        </mxCell>
        <mxCell id="ZW21HryPr5eFhCW9cXzX-90" value="" style="endArrow=none;html=1;rounded=0;" edge="1" parent="1">
          <mxGeometry width="50" height="50" relative="1" as="geometry">
            <mxPoint x="610" y="900" as="sourcePoint" />
            <mxPoint x="610" y="600" as="targetPoint" />
          </mxGeometry>
        </mxCell>
        <mxCell id="ZW21HryPr5eFhCW9cXzX-91" value="" style="endArrow=none;html=1;rounded=0;exitX=1;exitY=0.5;exitDx=0;exitDy=0;" edge="1" parent="1" source="ZW21HryPr5eFhCW9cXzX-88">
          <mxGeometry width="50" height="50" relative="1" as="geometry">
            <mxPoint x="570" y="690" as="sourcePoint" />
            <mxPoint x="610" y="900" as="targetPoint" />
          </mxGeometry>
        </mxCell>
        <mxCell id="ZW21HryPr5eFhCW9cXzX-92" value="" style="endArrow=none;html=1;rounded=0;entryX=0;entryY=0.5;entryDx=0;entryDy=0;exitX=1;exitY=0.5;exitDx=0;exitDy=0;" edge="1" parent="1" source="ZW21HryPr5eFhCW9cXzX-13" target="ZW21HryPr5eFhCW9cXzX-88">
          <mxGeometry width="50" height="50" relative="1" as="geometry">
            <mxPoint x="570" y="690" as="sourcePoint" />
            <mxPoint x="620" y="640" as="targetPoint" />
          </mxGeometry>
        </mxCell>
        <mxCell id="ZW21HryPr5eFhCW9cXzX-93" value="nom_cargo" style="ellipse;whiteSpace=wrap;html=1;" vertex="1" parent="1">
          <mxGeometry x="630" y="847" width="90" height="30" as="geometry" />
        </mxCell>
        <mxCell id="ZW21HryPr5eFhCW9cXzX-94" value="comp_espec" style="ellipse;whiteSpace=wrap;html=1;" vertex="1" parent="1">
          <mxGeometry x="730" y="877" width="90" height="30" as="geometry" />
        </mxCell>
        <mxCell id="ZW21HryPr5eFhCW9cXzX-95" value="porcent_comis" style="ellipse;whiteSpace=wrap;html=1;" vertex="1" parent="1">
          <mxGeometry x="640" y="730" width="90" height="30" as="geometry" />
        </mxCell>
        <mxCell id="ZW21HryPr5eFhCW9cXzX-96" value="" style="endArrow=none;html=1;rounded=0;entryX=0.5;entryY=1;entryDx=0;entryDy=0;exitX=0;exitY=0;exitDx=0;exitDy=0;" edge="1" parent="1" source="ZW21HryPr5eFhCW9cXzX-7" target="ZW21HryPr5eFhCW9cXzX-95">
          <mxGeometry width="50" height="50" relative="1" as="geometry">
            <mxPoint x="570" y="690" as="sourcePoint" />
            <mxPoint x="620" y="640" as="targetPoint" />
          </mxGeometry>
        </mxCell>
        <mxCell id="ZW21HryPr5eFhCW9cXzX-97" value="" style="endArrow=none;html=1;rounded=0;entryX=1;entryY=0;entryDx=0;entryDy=0;exitX=0.25;exitY=1;exitDx=0;exitDy=0;" edge="1" parent="1" source="ZW21HryPr5eFhCW9cXzX-7" target="ZW21HryPr5eFhCW9cXzX-93">
          <mxGeometry width="50" height="50" relative="1" as="geometry">
            <mxPoint x="570" y="690" as="sourcePoint" />
            <mxPoint x="620" y="640" as="targetPoint" />
          </mxGeometry>
        </mxCell>
        <mxCell id="ZW21HryPr5eFhCW9cXzX-98" value="" style="endArrow=none;html=1;rounded=0;entryX=0.75;entryY=1;entryDx=0;entryDy=0;exitX=0.5;exitY=0;exitDx=0;exitDy=0;" edge="1" parent="1" source="ZW21HryPr5eFhCW9cXzX-94" target="ZW21HryPr5eFhCW9cXzX-7">
          <mxGeometry width="50" height="50" relative="1" as="geometry">
            <mxPoint x="570" y="690" as="sourcePoint" />
            <mxPoint x="620" y="640" as="targetPoint" />
          </mxGeometry>
        </mxCell>
        <mxCell id="ZW21HryPr5eFhCW9cXzX-99" value="comp_sillon" style="ellipse;whiteSpace=wrap;html=1;" vertex="1" parent="1">
          <mxGeometry x="940" y="847" width="90" height="30" as="geometry" />
        </mxCell>
        <mxCell id="ZW21HryPr5eFhCW9cXzX-100" value="partido" style="ellipse;whiteSpace=wrap;html=1;" vertex="1" parent="1">
          <mxGeometry x="870" y="884.5" width="80" height="30" as="geometry" />
        </mxCell>
        <mxCell id="ZW21HryPr5eFhCW9cXzX-101" value="" style="endArrow=none;html=1;rounded=0;entryX=0.5;entryY=1;entryDx=0;entryDy=0;exitX=0.5;exitY=0;exitDx=0;exitDy=0;" edge="1" parent="1" source="ZW21HryPr5eFhCW9cXzX-100" target="ZW21HryPr5eFhCW9cXzX-10">
          <mxGeometry width="50" height="50" relative="1" as="geometry">
            <mxPoint x="570" y="690" as="sourcePoint" />
            <mxPoint x="620" y="640" as="targetPoint" />
          </mxGeometry>
        </mxCell>
        <mxCell id="ZW21HryPr5eFhCW9cXzX-102" value="" style="endArrow=none;html=1;rounded=0;entryX=0.75;entryY=1;entryDx=0;entryDy=0;exitX=0.311;exitY=0.011;exitDx=0;exitDy=0;exitPerimeter=0;" edge="1" parent="1" source="ZW21HryPr5eFhCW9cXzX-99" target="ZW21HryPr5eFhCW9cXzX-10">
          <mxGeometry width="50" height="50" relative="1" as="geometry">
            <mxPoint x="570" y="690" as="sourcePoint" />
            <mxPoint x="620" y="640" as="targetPoint" />
          </mxGeometry>
        </mxCell>
        <mxCell id="ZW21HryPr5eFhCW9cXzX-103" value="(1,n)" style="text;html=1;align=center;verticalAlign=middle;resizable=0;points=[];autosize=1;strokeColor=none;fillColor=none;" vertex="1" parent="1">
          <mxGeometry x="283" y="864" width="50" height="30" as="geometry" />
        </mxCell>
        <mxCell id="ZW21HryPr5eFhCW9cXzX-104" value="(1,n)" style="text;html=1;align=center;verticalAlign=middle;resizable=0;points=[];autosize=1;strokeColor=none;fillColor=none;" vertex="1" parent="1">
          <mxGeometry x="710" y="572.25" width="50" height="30" as="geometry" />
        </mxCell>
        <mxCell id="ZW21HryPr5eFhCW9cXzX-105" value="&lt;b&gt;N:M&lt;/b&gt;" style="text;html=1;align=center;verticalAlign=middle;resizable=0;points=[];autosize=1;strokeColor=none;fillColor=none;" vertex="1" parent="1">
          <mxGeometry x="401.5" y="834" width="50" height="30" as="geometry" />
        </mxCell>
        <mxCell id="ZW21HryPr5eFhCW9cXzX-106" value="nombre" style="ellipse;whiteSpace=wrap;html=1;" vertex="1" parent="1">
          <mxGeometry x="162" y="791" width="80" height="30" as="geometry" />
        </mxCell>
        <mxCell id="ZW21HryPr5eFhCW9cXzX-107" value="telf" style="ellipse;whiteSpace=wrap;html=1;" vertex="1" parent="1">
          <mxGeometry x="80" y="829.25" width="57" height="30" as="geometry" />
        </mxCell>
        <mxCell id="ZW21HryPr5eFhCW9cXzX-109" value="nivel_estudios" style="ellipse;whiteSpace=wrap;html=1;" vertex="1" parent="1">
          <mxGeometry x="30" y="884.5" width="100" height="30" as="geometry" />
        </mxCell>
        <mxCell id="ZW21HryPr5eFhCW9cXzX-112" value="" style="endArrow=none;html=1;rounded=0;entryX=0.5;entryY=1;entryDx=0;entryDy=0;" edge="1" parent="1" source="ZW21HryPr5eFhCW9cXzX-13" target="ZW21HryPr5eFhCW9cXzX-76">
          <mxGeometry width="50" height="50" relative="1" as="geometry">
            <mxPoint x="570" y="690" as="sourcePoint" />
            <mxPoint x="620" y="640" as="targetPoint" />
          </mxGeometry>
        </mxCell>
        <mxCell id="ZW21HryPr5eFhCW9cXzX-113" value="" style="endArrow=none;html=1;rounded=0;exitX=0.5;exitY=0;exitDx=0;exitDy=0;entryX=0.5;entryY=1;entryDx=0;entryDy=0;" edge="1" parent="1" source="ZW21HryPr5eFhCW9cXzX-13" target="ZW21HryPr5eFhCW9cXzX-106">
          <mxGeometry width="50" height="50" relative="1" as="geometry">
            <mxPoint x="570" y="690" as="sourcePoint" />
            <mxPoint x="620" y="640" as="targetPoint" />
          </mxGeometry>
        </mxCell>
        <mxCell id="ZW21HryPr5eFhCW9cXzX-115" value="" style="endArrow=none;html=1;rounded=0;exitX=0;exitY=0;exitDx=0;exitDy=0;entryX=0.5;entryY=1;entryDx=0;entryDy=0;" edge="1" parent="1" source="ZW21HryPr5eFhCW9cXzX-13" target="ZW21HryPr5eFhCW9cXzX-107">
          <mxGeometry width="50" height="50" relative="1" as="geometry">
            <mxPoint x="570" y="690" as="sourcePoint" />
            <mxPoint x="620" y="640" as="targetPoint" />
          </mxGeometry>
        </mxCell>
        <mxCell id="ZW21HryPr5eFhCW9cXzX-116" value="" style="endArrow=none;html=1;rounded=0;exitX=0;exitY=1;exitDx=0;exitDy=0;entryX=1;entryY=1;entryDx=0;entryDy=0;" edge="1" parent="1" source="ZW21HryPr5eFhCW9cXzX-13" target="ZW21HryPr5eFhCW9cXzX-109">
          <mxGeometry width="50" height="50" relative="1" as="geometry">
            <mxPoint x="570" y="690" as="sourcePoint" />
            <mxPoint x="620" y="640" as="targetPoint" />
          </mxGeometry>
        </mxCell>
        <mxCell id="ZW21HryPr5eFhCW9cXzX-117" value="Supervisa" style="rhombus;whiteSpace=wrap;html=1;" vertex="1" parent="1">
          <mxGeometry x="181.5" y="1020" width="78.5" height="80" as="geometry" />
        </mxCell>
        <mxCell id="ZW21HryPr5eFhCW9cXzX-118" value="" style="endArrow=none;html=1;rounded=0;exitX=0;exitY=1;exitDx=0;exitDy=0;entryX=0;entryY=0.5;entryDx=0;entryDy=0;" edge="1" parent="1" source="ZW21HryPr5eFhCW9cXzX-13" target="ZW21HryPr5eFhCW9cXzX-117">
          <mxGeometry width="50" height="50" relative="1" as="geometry">
            <mxPoint x="570" y="690" as="sourcePoint" />
            <mxPoint x="620" y="640" as="targetPoint" />
          </mxGeometry>
        </mxCell>
        <mxCell id="ZW21HryPr5eFhCW9cXzX-119" value="" style="endArrow=none;html=1;rounded=0;entryX=1;entryY=0.5;entryDx=0;entryDy=0;exitX=1;exitY=1;exitDx=0;exitDy=0;" edge="1" parent="1" source="ZW21HryPr5eFhCW9cXzX-13" target="ZW21HryPr5eFhCW9cXzX-117">
          <mxGeometry width="50" height="50" relative="1" as="geometry">
            <mxPoint x="330" y="1020" as="sourcePoint" />
            <mxPoint x="620" y="640" as="targetPoint" />
          </mxGeometry>
        </mxCell>
        <mxCell id="ZW21HryPr5eFhCW9cXzX-120" value="(0,1)" style="text;html=1;align=center;verticalAlign=middle;resizable=0;points=[];autosize=1;strokeColor=none;fillColor=none;" vertex="1" parent="1">
          <mxGeometry x="131.5" y="1030" width="50" height="30" as="geometry" />
        </mxCell>
        <mxCell id="ZW21HryPr5eFhCW9cXzX-121" value="(1,n)" style="text;html=1;align=center;verticalAlign=middle;resizable=0;points=[];autosize=1;strokeColor=none;fillColor=none;" vertex="1" parent="1">
          <mxGeometry x="266.5" y="1030" width="50" height="30" as="geometry" />
        </mxCell>
        <mxCell id="ZW21HryPr5eFhCW9cXzX-122" value="&lt;b&gt;1:N&lt;/b&gt;" style="text;html=1;align=center;verticalAlign=middle;resizable=0;points=[];autosize=1;strokeColor=none;fillColor=none;" vertex="1" parent="1">
          <mxGeometry x="200.5" y="989" width="40" height="30" as="geometry" />
        </mxCell>
        <mxCell id="ZW21HryPr5eFhCW9cXzX-123" value="&lt;u&gt;matricula&lt;/u&gt;" style="ellipse;whiteSpace=wrap;html=1;" vertex="1" parent="1">
          <mxGeometry x="106.5" y="488.5" width="75" height="30" as="geometry" />
        </mxCell>
        <mxCell id="ZW21HryPr5eFhCW9cXzX-124" value="marca" style="ellipse;whiteSpace=wrap;html=1;" vertex="1" parent="1">
          <mxGeometry x="80" y="537.5" width="70" height="30" as="geometry" />
        </mxCell>
        <mxCell id="ZW21HryPr5eFhCW9cXzX-125" value="modelo" style="ellipse;whiteSpace=wrap;html=1;" vertex="1" parent="1">
          <mxGeometry x="100" y="585" width="70" height="30" as="geometry" />
        </mxCell>
        <mxCell id="ZW21HryPr5eFhCW9cXzX-126" value="" style="endArrow=none;html=1;rounded=0;entryX=1;entryY=1;entryDx=0;entryDy=0;exitX=0;exitY=0;exitDx=0;exitDy=0;" edge="1" parent="1" source="ZW21HryPr5eFhCW9cXzX-9" target="ZW21HryPr5eFhCW9cXzX-123">
          <mxGeometry width="50" height="50" relative="1" as="geometry">
            <mxPoint x="680" y="690" as="sourcePoint" />
            <mxPoint x="730" y="640" as="targetPoint" />
          </mxGeometry>
        </mxCell>
        <mxCell id="ZW21HryPr5eFhCW9cXzX-127" value="" style="endArrow=none;html=1;rounded=0;entryX=1;entryY=0.5;entryDx=0;entryDy=0;exitX=0;exitY=0.5;exitDx=0;exitDy=0;" edge="1" parent="1" source="ZW21HryPr5eFhCW9cXzX-9" target="ZW21HryPr5eFhCW9cXzX-124">
          <mxGeometry width="50" height="50" relative="1" as="geometry">
            <mxPoint x="680" y="690" as="sourcePoint" />
            <mxPoint x="730" y="640" as="targetPoint" />
          </mxGeometry>
        </mxCell>
        <mxCell id="ZW21HryPr5eFhCW9cXzX-128" value="" style="endArrow=none;html=1;rounded=0;entryX=1;entryY=0.5;entryDx=0;entryDy=0;exitX=0;exitY=1;exitDx=0;exitDy=0;" edge="1" parent="1" source="ZW21HryPr5eFhCW9cXzX-9" target="ZW21HryPr5eFhCW9cXzX-125">
          <mxGeometry width="50" height="50" relative="1" as="geometry">
            <mxPoint x="680" y="690" as="sourcePoint" />
            <mxPoint x="730" y="640" as="targetPoint" />
          </mxGeometry>
        </mxCell>
        <mxCell id="ZW21HryPr5eFhCW9cXzX-129" value="(1,1)" style="text;html=1;align=center;verticalAlign=middle;resizable=0;points=[];autosize=1;strokeColor=none;fillColor=none;" vertex="1" parent="1">
          <mxGeometry x="353" y="524" width="50" height="30" as="geometry" />
        </mxCell>
        <mxCell id="ZW21HryPr5eFhCW9cXzX-130" value="(1,n)" style="text;html=1;align=center;verticalAlign=middle;resizable=0;points=[];autosize=1;strokeColor=none;fillColor=none;" vertex="1" parent="1">
          <mxGeometry x="720" y="527" width="50" height="30" as="geometry" />
        </mxCell>
        <mxCell id="ZW21HryPr5eFhCW9cXzX-131" value="&lt;b&gt;1:N&lt;/b&gt;" style="text;html=1;align=center;verticalAlign=middle;resizable=0;points=[];autosize=1;strokeColor=none;fillColor=none;" vertex="1" parent="1">
          <mxGeometry x="519" y="489" width="40" height="30" as="geometry" />
        </mxCell>
        <mxCell id="ZW21HryPr5eFhCW9cXzX-132" value="Pertenece" style="rhombus;whiteSpace=wrap;html=1;" vertex="1" parent="1">
          <mxGeometry x="789.5" y="320" width="80" height="80" as="geometry" />
        </mxCell>
        <mxCell id="ZW21HryPr5eFhCW9cXzX-133" value="" style="endArrow=none;html=1;rounded=0;entryX=0.5;entryY=1;entryDx=0;entryDy=0;exitX=0.5;exitY=0;exitDx=0;exitDy=0;" edge="1" parent="1" source="ZW21HryPr5eFhCW9cXzX-1" target="ZW21HryPr5eFhCW9cXzX-132">
          <mxGeometry width="50" height="50" relative="1" as="geometry">
            <mxPoint x="680" y="490" as="sourcePoint" />
            <mxPoint x="730" y="440" as="targetPoint" />
          </mxGeometry>
        </mxCell>
        <mxCell id="ZW21HryPr5eFhCW9cXzX-134" value="" style="endArrow=none;html=1;rounded=0;entryX=0.5;entryY=0;entryDx=0;entryDy=0;exitX=0.5;exitY=1;exitDx=0;exitDy=0;" edge="1" parent="1" source="ZW21HryPr5eFhCW9cXzX-12" target="ZW21HryPr5eFhCW9cXzX-132">
          <mxGeometry width="50" height="50" relative="1" as="geometry">
            <mxPoint x="680" y="490" as="sourcePoint" />
            <mxPoint x="730" y="440" as="targetPoint" />
          </mxGeometry>
        </mxCell>
        <mxCell id="ZW21HryPr5eFhCW9cXzX-135" value="(0,1)" style="text;html=1;align=center;verticalAlign=middle;resizable=0;points=[];autosize=1;strokeColor=none;fillColor=none;" vertex="1" parent="1">
          <mxGeometry x="838" y="225" width="50" height="30" as="geometry" />
        </mxCell>
        <mxCell id="ZW21HryPr5eFhCW9cXzX-137" value="(1,n)" style="text;html=1;align=center;verticalAlign=middle;resizable=0;points=[];autosize=1;strokeColor=none;fillColor=none;" vertex="1" parent="1">
          <mxGeometry x="832" y="524" width="50" height="30" as="geometry" />
        </mxCell>
        <mxCell id="ZW21HryPr5eFhCW9cXzX-138" value="&lt;b&gt;1:N&lt;/b&gt;" style="text;html=1;align=center;verticalAlign=middle;resizable=0;points=[];autosize=1;strokeColor=none;fillColor=none;" vertex="1" parent="1">
          <mxGeometry x="868" y="343" width="40" height="30" as="geometry" />
        </mxCell>
        <mxCell id="ZW21HryPr5eFhCW9cXzX-139" value="&lt;u&gt;nombre&lt;/u&gt;" style="ellipse;whiteSpace=wrap;html=1;" vertex="1" parent="1">
          <mxGeometry x="695" y="110" width="80" height="30" as="geometry" />
        </mxCell>
        <mxCell id="ZW21HryPr5eFhCW9cXzX-140" value="ideologia" style="ellipse;whiteSpace=wrap;html=1;" vertex="1" parent="1">
          <mxGeometry x="788" y="90" width="90" height="30" as="geometry" />
        </mxCell>
        <mxCell id="ZW21HryPr5eFhCW9cXzX-141" value="fecha_fund" style="ellipse;whiteSpace=wrap;html=1;" vertex="1" parent="1">
          <mxGeometry x="891" y="120" width="90" height="30" as="geometry" />
        </mxCell>
        <mxCell id="ZW21HryPr5eFhCW9cXzX-142" value="" style="endArrow=none;html=1;rounded=0;entryX=0.5;entryY=1;entryDx=0;entryDy=0;exitX=0.25;exitY=0;exitDx=0;exitDy=0;" edge="1" parent="1" source="ZW21HryPr5eFhCW9cXzX-12" target="ZW21HryPr5eFhCW9cXzX-139">
          <mxGeometry width="50" height="50" relative="1" as="geometry">
            <mxPoint x="680" y="490" as="sourcePoint" />
            <mxPoint x="730" y="440" as="targetPoint" />
          </mxGeometry>
        </mxCell>
        <mxCell id="ZW21HryPr5eFhCW9cXzX-143" value="" style="endArrow=none;html=1;rounded=0;entryX=0.5;entryY=1;entryDx=0;entryDy=0;exitX=0.5;exitY=0;exitDx=0;exitDy=0;" edge="1" parent="1" source="ZW21HryPr5eFhCW9cXzX-12" target="ZW21HryPr5eFhCW9cXzX-140">
          <mxGeometry width="50" height="50" relative="1" as="geometry">
            <mxPoint x="680" y="490" as="sourcePoint" />
            <mxPoint x="730" y="440" as="targetPoint" />
          </mxGeometry>
        </mxCell>
        <mxCell id="ZW21HryPr5eFhCW9cXzX-144" value="" style="endArrow=none;html=1;rounded=0;entryX=0;entryY=1;entryDx=0;entryDy=0;exitX=0.75;exitY=0;exitDx=0;exitDy=0;" edge="1" parent="1" source="ZW21HryPr5eFhCW9cXzX-12" target="ZW21HryPr5eFhCW9cXzX-141">
          <mxGeometry width="50" height="50" relative="1" as="geometry">
            <mxPoint x="680" y="490" as="sourcePoint" />
            <mxPoint x="730" y="440" as="targetPoint" />
          </mxGeometry>
        </mxCell>
        <mxCell id="ZW21HryPr5eFhCW9cXzX-145" value="Usa" style="rhombus;whiteSpace=wrap;html=1;" vertex="1" parent="1">
          <mxGeometry x="550" y="162.5" width="80" height="80" as="geometry" />
        </mxCell>
        <mxCell id="ZW21HryPr5eFhCW9cXzX-146" value="(1,n)" style="text;html=1;align=center;verticalAlign=middle;resizable=0;points=[];autosize=1;strokeColor=none;fillColor=none;" vertex="1" parent="1">
          <mxGeometry x="406" y="166" width="50" height="30" as="geometry" />
        </mxCell>
        <mxCell id="ZW21HryPr5eFhCW9cXzX-147" value="" style="endArrow=none;html=1;rounded=0;entryX=0;entryY=0.5;entryDx=0;entryDy=0;exitX=1;exitY=0.5;exitDx=0;exitDy=0;" edge="1" parent="1" source="ZW21HryPr5eFhCW9cXzX-145" target="ZW21HryPr5eFhCW9cXzX-12">
          <mxGeometry width="50" height="50" relative="1" as="geometry">
            <mxPoint x="680" y="490" as="sourcePoint" />
            <mxPoint x="730" y="440" as="targetPoint" />
          </mxGeometry>
        </mxCell>
        <mxCell id="ZW21HryPr5eFhCW9cXzX-148" value="" style="endArrow=none;html=1;rounded=0;entryX=0;entryY=0.5;entryDx=0;entryDy=0;exitX=1;exitY=0.5;exitDx=0;exitDy=0;" edge="1" parent="1" source="ZW21HryPr5eFhCW9cXzX-8" target="ZW21HryPr5eFhCW9cXzX-145">
          <mxGeometry width="50" height="50" relative="1" as="geometry">
            <mxPoint x="680" y="490" as="sourcePoint" />
            <mxPoint x="730" y="440" as="targetPoint" />
          </mxGeometry>
        </mxCell>
        <mxCell id="ZW21HryPr5eFhCW9cXzX-149" value="(1,1)" style="text;html=1;align=center;verticalAlign=middle;resizable=0;points=[];autosize=1;strokeColor=none;fillColor=none;" vertex="1" parent="1">
          <mxGeometry x="711" y="167" width="50" height="30" as="geometry" />
        </mxCell>
        <mxCell id="ZW21HryPr5eFhCW9cXzX-150" value="&lt;b&gt;1:N&lt;/b&gt;" style="text;html=1;align=center;verticalAlign=middle;resizable=0;points=[];autosize=1;strokeColor=none;fillColor=none;" vertex="1" parent="1">
          <mxGeometry x="567" y="135" width="40" height="30" as="geometry" />
        </mxCell>
        <mxCell id="ZW21HryPr5eFhCW9cXzX-151" value="&lt;u&gt;DNI&lt;/u&gt;" style="ellipse;whiteSpace=wrap;html=1;" vertex="1" parent="1">
          <mxGeometry x="182" y="120" width="60" height="30" as="geometry" />
        </mxCell>
        <mxCell id="ZW21HryPr5eFhCW9cXzX-152" value="nombre" style="ellipse;whiteSpace=wrap;html=1;" vertex="1" parent="1">
          <mxGeometry x="140" y="187.5" width="80" height="30" as="geometry" />
        </mxCell>
        <mxCell id="ZW21HryPr5eFhCW9cXzX-153" value="" style="endArrow=none;html=1;rounded=0;entryX=1;entryY=1;entryDx=0;entryDy=0;exitX=0.25;exitY=0;exitDx=0;exitDy=0;" edge="1" parent="1" source="ZW21HryPr5eFhCW9cXzX-8" target="ZW21HryPr5eFhCW9cXzX-151">
          <mxGeometry width="50" height="50" relative="1" as="geometry">
            <mxPoint x="680" y="490" as="sourcePoint" />
            <mxPoint x="730" y="440" as="targetPoint" />
          </mxGeometry>
        </mxCell>
        <mxCell id="ZW21HryPr5eFhCW9cXzX-157" value="" style="endArrow=none;html=1;rounded=0;entryX=1;entryY=1;entryDx=0;entryDy=0;exitX=0;exitY=0.75;exitDx=0;exitDy=0;" edge="1" parent="1" source="ZW21HryPr5eFhCW9cXzX-8" target="ZW21HryPr5eFhCW9cXzX-152">
          <mxGeometry width="50" height="50" relative="1" as="geometry">
            <mxPoint x="680" y="490" as="sourcePoint" />
            <mxPoint x="730" y="440" as="targetPoint" />
          </mxGeometry>
        </mxCell>
        <mxCell id="ZW21HryPr5eFhCW9cXzX-158" value="" style="whiteSpace=wrap;html=1;fillColor=none;" vertex="1" parent="1">
          <mxGeometry x="291.5" y="187.5" width="110" height="30" as="geometry" />
        </mxCell>
        <mxCell id="ZW21HryPr5eFhCW9cXzX-159" value="" style="rhombus;whiteSpace=wrap;html=1;fillColor=none;" vertex="1" parent="1">
          <mxGeometry x="555" y="169.25" width="70" height="66.5" as="geometry" />
        </mxCell>
        <mxCell id="ZW21HryPr5eFhCW9cXzX-160" value="&lt;b&gt;E&lt;/b&gt;" style="text;html=1;align=center;verticalAlign=middle;resizable=0;points=[];autosize=1;strokeColor=none;fillColor=none;" vertex="1" parent="1">
          <mxGeometry x="541" y="217.5" width="30" height="30" as="geometry" />
        </mxCell>
        <mxCell id="ZW21HryPr5eFhCW9cXzX-161" value="&lt;u&gt;DNI&lt;/u&gt;" style="ellipse;whiteSpace=wrap;html=1;" vertex="1" parent="1">
          <mxGeometry x="712" y="629" width="60" height="30" as="geometry" />
        </mxCell>
        <mxCell id="ZW21HryPr5eFhCW9cXzX-162" value="nombre" style="ellipse;whiteSpace=wrap;html=1;" vertex="1" parent="1">
          <mxGeometry x="910" y="390" width="80" height="30" as="geometry" />
        </mxCell>
        <mxCell id="ZW21HryPr5eFhCW9cXzX-163" value="apellidos" style="ellipse;whiteSpace=wrap;html=1;" vertex="1" parent="1">
          <mxGeometry x="981" y="422" width="80" height="30" as="geometry" />
        </mxCell>
        <mxCell id="ZW21HryPr5eFhCW9cXzX-164" value="" style="endArrow=none;html=1;rounded=0;entryX=0.25;entryY=1;entryDx=0;entryDy=0;" edge="1" parent="1" target="ZW21HryPr5eFhCW9cXzX-1">
          <mxGeometry width="50" height="50" relative="1" as="geometry">
            <mxPoint x="760" y="630" as="sourcePoint" />
            <mxPoint x="730" y="640" as="targetPoint" />
          </mxGeometry>
        </mxCell>
        <mxCell id="ZW21HryPr5eFhCW9cXzX-165" value="direc_compl" style="ellipse;whiteSpace=wrap;html=1;" vertex="1" parent="1">
          <mxGeometry x="670" y="469" width="90" height="30" as="geometry" />
        </mxCell>
        <mxCell id="ZW21HryPr5eFhCW9cXzX-166" value="" style="endArrow=none;html=1;rounded=0;entryX=0;entryY=1;entryDx=0;entryDy=0;exitX=0.5;exitY=0;exitDx=0;exitDy=0;" edge="1" parent="1" source="ZW21HryPr5eFhCW9cXzX-77" target="ZW21HryPr5eFhCW9cXzX-162">
          <mxGeometry width="50" height="50" relative="1" as="geometry">
            <mxPoint x="680" y="690" as="sourcePoint" />
            <mxPoint x="730" y="640" as="targetPoint" />
          </mxGeometry>
        </mxCell>
        <mxCell id="ZW21HryPr5eFhCW9cXzX-167" value="" style="endArrow=none;html=1;rounded=0;entryX=0;entryY=1;entryDx=0;entryDy=0;exitX=1;exitY=0;exitDx=0;exitDy=0;" edge="1" parent="1" source="ZW21HryPr5eFhCW9cXzX-77" target="ZW21HryPr5eFhCW9cXzX-163">
          <mxGeometry width="50" height="50" relative="1" as="geometry">
            <mxPoint x="680" y="690" as="sourcePoint" />
            <mxPoint x="730" y="640" as="targetPoint" />
          </mxGeometry>
        </mxCell>
        <mxCell id="ZW21HryPr5eFhCW9cXzX-168" value="" style="endArrow=none;html=1;rounded=0;entryX=0.333;entryY=1.044;entryDx=0;entryDy=0;entryPerimeter=0;exitX=1.067;exitY=1.178;exitDx=0;exitDy=0;exitPerimeter=0;" edge="1" parent="1" source="ZW21HryPr5eFhCW9cXzX-137" target="ZW21HryPr5eFhCW9cXzX-77">
          <mxGeometry width="50" height="50" relative="1" as="geometry">
            <mxPoint x="680" y="690" as="sourcePoint" />
            <mxPoint x="730" y="640" as="targetPoint" />
          </mxGeometry>
        </mxCell>
        <mxCell id="ZW21HryPr5eFhCW9cXzX-169" value="correo_elec" style="ellipse;whiteSpace=wrap;html=1;" vertex="1" parent="1">
          <mxGeometry x="938" y="499" width="72" height="30" as="geometry" />
        </mxCell>
        <mxCell id="ZW21HryPr5eFhCW9cXzX-170" value="" style="endArrow=none;html=1;rounded=0;entryX=0;entryY=0.5;entryDx=0;entryDy=0;" edge="1" parent="1" target="ZW21HryPr5eFhCW9cXzX-169">
          <mxGeometry width="50" height="50" relative="1" as="geometry">
            <mxPoint x="890" y="550" as="sourcePoint" />
            <mxPoint x="730" y="640" as="targetPoint" />
          </mxGeometry>
        </mxCell>
        <mxCell id="ZW21HryPr5eFhCW9cXzX-171" value="telf" style="ellipse;whiteSpace=wrap;html=1;" vertex="1" parent="1">
          <mxGeometry x="919" y="621" width="62" height="30" as="geometry" />
        </mxCell>
        <mxCell id="ZW21HryPr5eFhCW9cXzX-173" value="sueldo_base" style="ellipse;whiteSpace=wrap;html=1;" vertex="1" parent="1">
          <mxGeometry x="901" y="673" width="80" height="30" as="geometry" />
        </mxCell>
        <mxCell id="ZW21HryPr5eFhCW9cXzX-175" value="" style="ellipse;whiteSpace=wrap;html=1;aspect=fixed;" vertex="1" parent="1">
          <mxGeometry x="898" y="668" width="12" height="12" as="geometry" />
        </mxCell>
        <mxCell id="ZW21HryPr5eFhCW9cXzX-176" value="" style="endArrow=none;html=1;rounded=0;entryX=0.75;entryY=1;entryDx=0;entryDy=0;exitX=0;exitY=0;exitDx=0;exitDy=0;" edge="1" parent="1" source="ZW21HryPr5eFhCW9cXzX-175" target="ZW21HryPr5eFhCW9cXzX-1">
          <mxGeometry width="50" height="50" relative="1" as="geometry">
            <mxPoint x="680" y="690" as="sourcePoint" />
            <mxPoint x="730" y="640" as="targetPoint" />
          </mxGeometry>
        </mxCell>
        <mxCell id="ZW21HryPr5eFhCW9cXzX-177" value="" style="endArrow=none;html=1;rounded=0;entryX=1;entryY=1;entryDx=0;entryDy=0;exitX=0;exitY=0;exitDx=0;exitDy=0;" edge="1" parent="1" source="ZW21HryPr5eFhCW9cXzX-171" target="ZW21HryPr5eFhCW9cXzX-1">
          <mxGeometry width="50" height="50" relative="1" as="geometry">
            <mxPoint x="680" y="690" as="sourcePoint" />
            <mxPoint x="730" y="640" as="targetPoint" />
          </mxGeometry>
        </mxCell>
        <mxCell id="ZW21HryPr5eFhCW9cXzX-178" value="&lt;b&gt;n&lt;/b&gt;" style="text;html=1;align=center;verticalAlign=middle;resizable=0;points=[];autosize=1;strokeColor=none;fillColor=none;" vertex="1" parent="1">
          <mxGeometry x="908" y="598.5" width="30" height="30" as="geometry" />
        </mxCell>
        <mxCell id="ZW21HryPr5eFhCW9cXzX-179" value="" style="endArrow=none;html=1;rounded=0;entryX=1;entryY=1;entryDx=0;entryDy=0;exitX=0.25;exitY=0;exitDx=0;exitDy=0;" edge="1" parent="1" source="ZW21HryPr5eFhCW9cXzX-1" target="ZW21HryPr5eFhCW9cXzX-165">
          <mxGeometry width="50" height="50" relative="1" as="geometry">
            <mxPoint x="680" y="690" as="sourcePoint" />
            <mxPoint x="730" y="640" as="targetPoint" />
          </mxGeometry>
        </mxCell>
        <mxCell id="ZW21HryPr5eFhCW9cXzX-180" value="direc_post" style="ellipse;whiteSpace=wrap;html=1;" vertex="1" parent="1">
          <mxGeometry x="545" y="430" width="80" height="30" as="geometry" />
        </mxCell>
        <mxCell id="ZW21HryPr5eFhCW9cXzX-181" value="cod_post" style="ellipse;whiteSpace=wrap;html=1;" vertex="1" parent="1">
          <mxGeometry x="611" y="404" width="68" height="30" as="geometry" />
        </mxCell>
        <mxCell id="ZW21HryPr5eFhCW9cXzX-182" value="localidad" style="ellipse;whiteSpace=wrap;html=1;" vertex="1" parent="1">
          <mxGeometry x="679" y="390" width="68" height="30" as="geometry" />
        </mxCell>
        <mxCell id="ZW21HryPr5eFhCW9cXzX-183" value="provincia" style="ellipse;whiteSpace=wrap;html=1;dashed=1;" vertex="1" parent="1">
          <mxGeometry x="739" y="420" width="68" height="30" as="geometry" />
        </mxCell>
        <mxCell id="ZW21HryPr5eFhCW9cXzX-184" value="" style="endArrow=none;html=1;rounded=0;entryX=1;entryY=1;entryDx=0;entryDy=0;exitX=0;exitY=0.5;exitDx=0;exitDy=0;" edge="1" parent="1" source="ZW21HryPr5eFhCW9cXzX-165" target="ZW21HryPr5eFhCW9cXzX-180">
          <mxGeometry width="50" height="50" relative="1" as="geometry">
            <mxPoint x="680" y="560" as="sourcePoint" />
            <mxPoint x="730" y="510" as="targetPoint" />
          </mxGeometry>
        </mxCell>
        <mxCell id="ZW21HryPr5eFhCW9cXzX-185" value="" style="endArrow=none;html=1;rounded=0;entryX=0.688;entryY=0.93;entryDx=0;entryDy=0;entryPerimeter=0;exitX=0;exitY=0;exitDx=0;exitDy=0;" edge="1" parent="1" source="ZW21HryPr5eFhCW9cXzX-165" target="ZW21HryPr5eFhCW9cXzX-181">
          <mxGeometry width="50" height="50" relative="1" as="geometry">
            <mxPoint x="680" y="560" as="sourcePoint" />
            <mxPoint x="730" y="510" as="targetPoint" />
          </mxGeometry>
        </mxCell>
        <mxCell id="ZW21HryPr5eFhCW9cXzX-186" value="" style="endArrow=none;html=1;rounded=0;entryX=0.5;entryY=1;entryDx=0;entryDy=0;exitX=0.5;exitY=0;exitDx=0;exitDy=0;" edge="1" parent="1" source="ZW21HryPr5eFhCW9cXzX-165" target="ZW21HryPr5eFhCW9cXzX-182">
          <mxGeometry width="50" height="50" relative="1" as="geometry">
            <mxPoint x="680" y="560" as="sourcePoint" />
            <mxPoint x="730" y="510" as="targetPoint" />
          </mxGeometry>
        </mxCell>
        <mxCell id="ZW21HryPr5eFhCW9cXzX-187" value="" style="endArrow=none;html=1;rounded=0;entryX=0;entryY=1;entryDx=0;entryDy=0;exitX=1;exitY=0;exitDx=0;exitDy=0;" edge="1" parent="1" source="ZW21HryPr5eFhCW9cXzX-165" target="ZW21HryPr5eFhCW9cXzX-183">
          <mxGeometry width="50" height="50" relative="1" as="geometry">
            <mxPoint x="740" y="480" as="sourcePoint" />
            <mxPoint x="730" y="510" as="targetPoint" />
          </mxGeometry>
        </mxCell>
        <mxCell id="ZW21HryPr5eFhCW9cXzX-188" value="&lt;b&gt;n&lt;/b&gt;" style="text;html=1;align=center;verticalAlign=middle;resizable=0;points=[];autosize=1;strokeColor=none;fillColor=none;" vertex="1" parent="1">
          <mxGeometry x="137" y="847" width="30" height="30" as="geometry" />
        </mxCell>
        <mxCell id="ZW21HryPr5eFhCW9cXzX-189" value="" style="whiteSpace=wrap;html=1;fillColor=none;" vertex="1" parent="1">
          <mxGeometry x="167.5" y="884.5" width="110" height="30" as="geometry" />
        </mxCell>
        <mxCell id="ZW21HryPr5eFhCW9cXzX-190" value="&lt;b&gt;E&lt;/b&gt;" style="text;html=1;align=center;verticalAlign=middle;resizable=0;points=[];autosize=1;strokeColor=none;fillColor=none;" vertex="1" parent="1">
          <mxGeometry x="373" y="860" width="30" height="30" as="geometry" />
        </mxCell>
        <mxCell id="ZW21HryPr5eFhCW9cXzX-191" value="" style="rhombus;whiteSpace=wrap;html=1;fillColor=none;" vertex="1" parent="1">
          <mxGeometry x="394.5" y="867.25" width="70" height="66.5" as="geometry" />
        </mxCell>
      </root>
    </mxGraphModel>
  </diagram>
</mxfile>
